<?xml version="1.0" standalone="no"?><!DOCTYPE svg PUBLIC "-//W3C//DTD SVG 1.1//EN" "http://www.w3.org/Graphics/SVG/1.1/DTD/svg11.dtd"><svg t="1586758487807" class="icon" viewBox="0 0 1024 1024" version="1.1" xmlns="http://www.w3.org/2000/svg" p-id="1579" width="128" height="128" xmlns:xlink="http://www.w3.org/1999/xlink"><defs><style type="text/css"></style></defs><path d="M518.997333 924.842667a300.202667 300.202667 0 0 1-299.861333-299.690667v-238.933333H819.2v238.933333a300.202667 300.202667 0 0 1-300.202667 299.690667zM299.52 467.114667v158.037333a219.477333 219.477333 0 0 0 438.784 0v-158.037333z" fill="#ffffff" p-id="1580"></path><path d="M822.613333 379.904l68.266667-179.712H146.602667l69.290666 181.248-83.285333 98.304L785.066667 477.866667l19.456-51.2 17.066666-46.762667zM493.909333 273.066667l20.650667-41.813334L535.210667 273.066667l46.08 6.656-34.133334 32.597333 8.533334 46.08-41.301334-21.674667L473.258667 358.4l7.850666-45.909333-34.133333-32.597334z" fill="#ffffff" p-id="1581"></path><path d="M380.586667 533.333333h74.581333v74.581334H380.586667zM582.826667 533.333333h74.581333v74.581334h-74.581333z" fill="#ffffff" p-id="1582"></path></svg>