<?xml version="1.0" standalone="no"?><!DOCTYPE svg PUBLIC "-//W3C//DTD SVG 1.1//EN" "http://www.w3.org/Graphics/SVG/1.1/DTD/svg11.dtd"><svg t="1586758592732" class="icon" viewBox="0 0 1024 1024" version="1.1" xmlns="http://www.w3.org/2000/svg" p-id="3289" width="128" height="128" xmlns:xlink="http://www.w3.org/1999/xlink"><defs><style type="text/css"></style></defs><path d="M922.418791 144.311844c-12.793603-11.770115-29.169415-17.3993-45.545228-17.3993h-4.605697c-1.023488 0-11.770115 1.023488-28.145927 1.023488-28.145927 0-81.367316-2.046977-132.541729-14.328836-66.014993-15.352324-142.264868-88.01999-164.269865-102.348825C536.563718 4.605697 523.258371 0.511744 510.464768 0.511744s-25.075462 4.093953-36.845578 10.746627c-3.070465 2.046977-82.390805 83.926037-159.664168 102.348825-51.174413 12.793603-106.442779 14.328836-133.565217 14.328836-17.3993 0-28.145927-1.023488-29.169415-1.023488h-4.093953c-17.3993 0-32.751624 5.629185-45.545228 17.3993-13.817091 11.770115-21.493253 29.169415-21.493253 46.568716v160.687656c0 592.087956 401.207396 668.337831 417.583208 671.408296 4.093953 1.023488 7.676162 1.023488 11.770115 1.023488 4.093953 0 7.676162 0 11.770115-1.023488 17.3993-3.070465 420.653673-79.32034 420.653673-671.408296V190.88056c1.023488-17.911044-6.652674-35.310345-19.446276-46.568716z m-10.234883 206.744628c0 131.006497-20.469765 246.148926-60.897551 342.356821-32.23988 76.249875-76.761619 140.729635-133.053473 191.392304-98.766617 89.555222-200.091954 106.954523-201.115443 106.954523-1.023488 0-1.535232 0.511744-2.55872 0.511744h-8.187906c-0.511744 0-1.535232-0.511744-2.046977-0.511744-4.093953-0.511744-102.86057-18.422789-199.58021-106.954523-55.78011-51.174413-100.301849-115.142429-132.029985-191.392304-40.427786-96.207896-60.385807-211.350325-60.385807-342.356821V190.88056c0-8.69965 4.093953-17.3993 10.746627-23.028486l1.023488-1.023488c6.652674-6.14093 14.84058-9.211394 24.563718-9.211395h3.582209c4.093953 0.511744 14.328836 1.023488 29.681159 1.023489 29.169415 0 85.973013-2.046977 140.729636-15.352324 49.127436-12.281859 107.978011-49.127436 168.875562-107.466267l0.511744-0.511744c6.652674-3.070465 12.793603-5.117441 18.934533-5.117441 6.652674 0 14.328836 2.046977 19.958021 5.629185 4.093953 2.558721 12.281859 9.211394 20.469765 15.864068 35.822089 28.657671 95.696152 77.273363 153.011494 90.578711 54.756622 13.305347 111.048476 15.352324 139.706147 15.352323 14.328836 0 24.563718-0.511744 28.657671-1.023488h4.605697c9.211394 0 18.422789 3.582209 24.563718 9.211394 6.652674 6.14093 10.746627 15.352324 10.746627 24.051974v161.199401z" p-id="3290" fill="#ffffff"></path><path d="M757.637181 727.188406l-138.170914-222.096952V269.177411h9.723138c5.629185 0 10.234883-6.14093 10.234883-13.305347 0-7.164418-4.605697-13.305347-10.234883-13.305347H489.483258c-5.629185 0-10.234883 6.14093-10.234882 13.305347 0 7.164418 4.605697 13.305347 10.234882 13.305347h9.723139V481.03948c-14.328836-13.817091-30.704648-25.075462-49.127436-32.751624V306.534733h9.723138c5.629185 0 10.234883-4.093953 10.234883-9.211395s-4.605697-9.211394-10.234883-9.211394H320.607696c-5.629185 0-10.234883 4.093953-10.234882 9.211394s4.605697 9.211394 10.234882 9.211395h9.723139v141.753123c-56.291854 23.54023-96.207896 79.32034-96.207896 144.311844 0 69.085457 46.568716 131.006497 113.095452 149.94103 4.093953 1.023488 8.187906 2.046977 12.793603 3.070464 1.535232 19.958021 14.328836 35.822089 29.681159 35.822089h339.286357c16.375812 0 30.192904-17.911044 30.192904-40.427786v-4.605697c0-3.070465-0.511744-6.652674-1.535233-9.211394zM361.035482 318.816592H419.886057v120.25987c-9.723138-2.046977-19.446277-2.558721-29.169415-2.558721-9.723138 0-19.958021 1.023488-29.169416 2.558721V318.816592z m7.164418 397.113443c-4.093953-0.511744-8.187906-1.535232-12.281859-2.558721-53.221389-15.352324-90.578711-64.991504-90.578711-120.771614 0-69.085457 56.291854-125.377311 125.377312-125.377311 38.38081 0 73.691154 16.887556 97.743128 46.568715 1.023488 1.535232 2.046977 2.558721 3.070465 4.093953l-123.330335 198.044978z m357.709145 34.798601H392.763618c-1.023488-1.535232-2.558721-5.117441-2.55872-9.723139v-1.023488l0.511744-2.558721 134.588705-215.956022 4.605697-7.676162V272.75962H588.761619v241.031484l4.605697 7.676162 135.10045 216.467766V741.005497c0 4.605697-1.535232 7.676162-2.558721 9.723139z" p-id="3291" fill="#ffffff"></path></svg>