<?xml version="1.0" standalone="no"?><!DOCTYPE svg PUBLIC "-//W3C//DTD SVG 1.1//EN" "http://www.w3.org/Graphics/SVG/1.1/DTD/svg11.dtd"><svg t="1586749886387" class="icon" viewBox="0 0 1024 1024" version="1.1" xmlns="http://www.w3.org/2000/svg" p-id="3985" xmlns:xlink="http://www.w3.org/1999/xlink" width="48" height="48"><defs><style type="text/css"></style></defs><path d="M837.818182 954.181818H186.181818V488.727273c0-179.2 146.618182-325.818182 325.818182-325.818182s325.818182 146.618182 325.818182 325.818182v465.454545z m-605.090909-46.545454h558.545454V488.727273c0-153.6-125.672727-279.272727-279.272727-279.272728s-279.272727 125.672727-279.272727 279.272728v418.909091z" fill="#ffffff" p-id="3986"></path><path d="M81.454545 907.636364h837.818182v46.545454h-837.818182zM521.309091 798.254545l-39.563636-20.945454 86.10909-172.218182h-186.181818l121.018182-239.709091 39.563636 20.945455-86.10909 172.218182h186.181818zM477.090909 0h46.545455v116.363636h-46.545455zM28.392727 378.414545l13.032728-44.683636 111.70909 32.581818-13.032727 44.683637zM849.92 366.289455l111.709091-32.628364 13.032727 44.683636-111.709091 32.628364zM716.846545 184.273455l73.774546-89.972364L826.647273 123.810909l-73.774546 89.972364zM174.126545 123.880727L210.571636 94.952727l72.401455 91.112728-36.445091 28.951272z" fill="#ffffff" p-id="3987"></path></svg>