<?xml version="1.0" standalone="no"?><!DOCTYPE svg PUBLIC "-//W3C//DTD SVG 1.1//EN" "http://www.w3.org/Graphics/SVG/1.1/DTD/svg11.dtd"><svg t="1586758567955" class="icon" viewBox="0 0 1209 1024" version="1.1" xmlns="http://www.w3.org/2000/svg" p-id="2912" width="151.125" height="128" xmlns:xlink="http://www.w3.org/1999/xlink"><defs><style type="text/css"></style></defs><path d="M731.38176 602.74176v90.17856h153.67168s26.08128-64.79872 72.9088-72.0896c0 0 59.04896-0.43008 76.83072 0 35.17952 0.83968 66.74944 48.29184 72.63744 72.0896h72.63744v-90.17856h-448.68608zM398.22336 530.02752c60.83584-24.1152 54.94272 40.38144 54.94272 40.38144H343.25504V489.64096c63.6416-30.848 54.96832 40.38656 54.96832 40.38656zM1125.08928 536.76032c-60.8512-24.1152-54.95808 40.38144-54.95808 40.38144h109.92128V496.37888c-63.64672-30.84288-54.9632 40.38144-54.9632 40.38144zM714.26048 701.09184c0 1.8944-1.55136 3.45088-3.44576 3.45088H477.09696a3.46112 3.46112 0 0 1-3.44576-3.45088v-113.40288c0-1.89952 1.55136-3.456 3.44576-3.456h233.71776c1.8944 0 3.44576 1.55648 3.44576 3.456v113.40288zM154.48576 647.36256c-54.52288 0-98.72384 44.20096-98.72384 98.72896 0 54.52288 44.20096 98.71872 98.72384 98.71872 54.528 0 98.72896-44.19584 98.72896-98.71872 0-54.53312-44.20096-98.72896-98.72896-98.72896z m0.04096 155.96544C122.91072 803.328 97.28 777.69728 97.28 746.0864c0-31.62624 25.6256-57.25184 57.24672-57.25184 31.62112 0 57.2416 25.6256 57.2416 57.25184 0 31.62112-25.6256 57.2416-57.2416 57.2416z" fill="#ffffff" p-id="2913"></path><path d="M996.37248 647.36256c-54.51264 0-98.71872 44.20096-98.71872 98.72896 0 54.52288 44.20608 98.71872 98.71872 98.71872 54.52288 0 98.72896-44.19584 98.72896-98.71872 0.01024-54.53312-44.20096-98.72896-98.72896-98.72896z m0.03584 155.96544c-31.61088 0-57.2416-25.63072-57.2416-57.2416 0-31.62624 25.63072-57.25184 57.2416-57.25184 31.62112 0 57.25184 25.6256 57.25184 57.25184 0 31.62112-25.63072 57.2416-57.25184 57.2416zM307.36384 602.94144l-4.49536-407.18848s-17.95584-44.8768-219.86816-15.70816c0 0-69.53984 143.58016-83.00032 249.02656v233.32352s15.70816 38.12352 41.50784 29.15328c0 0 10.08128-49.35168 68.41344-69.53984 0 0 74.03008-4.49024 105.45152 4.49536 0 0 38.13376 7.20384 49.34656 66.42176H453.1712v-89.97376H307.36384v-0.01024zM75.16672 447.5648s-20.90496 2.7648-17.95584-30.83264c7.28064-83.29728 47.11424-197.42208 47.11424-197.42208h143.57504s17.95584-2.24768 20.18816 17.9456c2.25792 20.19328 0 189.568 0 189.568s-6.17984 20.67968-24.65792 20.18816c-17.75104-0.47104-168.26368 0.55296-168.26368 0.55296z m198.53312 79.21152H179.47648v-38.144h94.22336v38.144zM439.7056 272.45056s47.11424 250.25024 60.57984 268.79488h300.63616s293.61152-87.23968 394.84928-178.42176c0 0 54.39488-149.51424-53.84704-238.66368h-379.16672c0.01536 0-246.75328 48.60416-323.05152 148.29056zM505.7024 299.52l256.7424-108.8 354.12992-7.68s52.91008 110.93504 18.35008 144.64c-33.03424 32.22016-341.76 138.24-341.76 138.24l-249.6 10.24-37.8624-176.64z" fill="#ffffff" p-id="2914"></path><path d="M724.73088 348.79488l20.56704-14.98112c2.59072-1.88416 3.52256-5.2224 2.51904-8.0896l3.88096-2.82624a37.62176 37.62176 0 0 0 22.07744 11.84768c20.87424 3.28192 40.44288-10.96704 43.71456-31.78496a38.2208 38.2208 0 0 0-75.50976-11.8784 37.6832 37.6832 0 0 0 4.49536 24.64768l-3.87584 2.82624a7.1168 7.1168 0 0 0-8.46336-0.08704l-20.57728 14.98112a7.13728 7.13728 0 0 0-1.5616 9.95328l2.78528 3.81952c2.304 3.1744 6.77376 3.87584 9.94816 1.57184z m59.81184-82.54976a31.1296 31.1296 0 0 1 25.9328 35.61472 31.16032 31.16032 0 0 1-35.6096 25.9328c-17.01376-2.67264-28.55424-18.64192-25.88672-35.60448a31.1296 31.1296 0 0 1 35.56352-25.94304zM59.33056 883.49696h1069.24544v43.52H59.33056z" fill="#ffffff" p-id="2915"></path><path d="M801.71008 220.7744c-71.60832 13.93664-133.44256 54.8352-174.11584 115.16928a11.64288 11.64288 0 0 0 3.15392 16.20992l99.9168 67.38432c2.66752 1.792 5.84192 2.35008 8.77568 1.78176a11.78624 11.78624 0 0 0 7.46496-4.93568c19.21024-28.50816 48.44544-47.81056 82.28352-54.4 33.8176-6.58432 68.1728 0.34816 96.65536 19.57376a11.69408 11.69408 0 0 0 16.24064-3.15904l67.3536-99.93728a11.66336 11.66336 0 0 0-3.1488-16.21504c-60.31872-40.6784-132.96128-55.40864-204.57984-41.472z m127.27808 135.22432a150.56384 150.56384 0 0 0-49.49504-17.664l14.16192-50.92864a11.6736 11.6736 0 0 0-8.1152-14.39232 11.70432 11.70432 0 0 0-14.40768 8.1152l-15.35488 55.16288a153.96864 153.96864 0 0 0-31.07328 2.74432c-36.12672 7.02976-67.77856 26.33216-90.32192 54.85056L653.70112 339.5072c37.10464-49.95584 90.81344-83.77856 152.45312-95.77984 61.62944-11.99104 124.1088-0.768 177.22368 31.62624l-54.38976 80.64512z" fill="#ffffff" p-id="2916"></path></svg>