<svg t="1586749745444" class="icon" viewBox="0 0 1024 1024" version="1.1" xmlns="http://www.w3.org/2000/svg" p-id="1531" xmlns:xlink="http://www.w3.org/1999/xlink" width="48" height="48"><defs><style type="text/css"></style></defs><path d="M504.576 232.192m-70.912 0a1.108 1.108 0 1 0 141.824 0 1.108 1.108 0 1 0-141.824 0Z" p-id="1532" fill="#ffffff"></path><path d="M512 64C264.576 64 64 264.576 64 512s200.576 448 448 448c247.424 0 448-200.576 448-448S759.424 64 512 64zM94.336 512c0-230.656 186.944-417.728 417.664-417.728 108.352 0 207.168 41.344 281.408 109.056l-593.088 586.816C134.464 716.224 94.336 618.816 94.336 512zM512 929.728c-113.28 0-215.936-45.184-291.136-118.336L814.464 224c71.36 74.944 115.264 176.256 115.264 288C929.664 742.656 742.656 929.728 512 929.728z" p-id="1533" fill="#ffffff"></path><path d="M564.352 547.008l70.464 0L634.816 539.328 634.816 491.584 634.816 416.768 453.568 596.032l11.456 165.184L339.328 761.216l0 102.272 0 7.872 9.088 0 5.632 0 11.328 0 5.632 0 11.328 0 5.632 0L399.36 871.36l5.632 0 11.328 0 5.632 0 11.392 0 5.632 0 11.328 0 5.632 0L467.2 871.36l5.632 0 11.392 0 5.632 0 11.328 0 5.632 0 11.328 0 5.632 0 11.392 0 5.632 0 11.328 0 5.632 0 11.392 0 5.568 0 11.392 0 5.632 0 11.328 0L608.64 871.36l11.392 0 5.632 0 11.328 0 5.632 0 11.392 0 5.696 0 10.112 0 0-7.872 0-102.272L549.952 761.216 564.352 547.008zM354.048 863.488 348.416 863.488 348.416 772.48l5.632 0L354.048 863.488zM371.008 863.488 365.376 863.488 365.376 772.48l5.632 0L371.008 863.488zM387.968 863.488 382.336 863.488 382.336 772.48l5.632 0L387.968 863.488zM404.992 863.488 399.36 863.488 399.36 772.48l5.632 0L404.992 863.488zM421.952 863.488 416.32 863.488 416.32 772.48l5.632 0L421.952 863.488zM438.912 863.488 433.344 863.488 433.344 772.48l5.632 0L438.976 863.488zM653.952 772.48l5.696 0 0 91.008-5.696 0L653.952 772.48zM636.928 772.48l5.632 0 0 91.008L636.928 863.488 636.928 772.48zM620.032 772.48l5.632 0 0 91.008L620.032 863.488 620.032 772.48zM603.008 772.48 608.64 772.48l0 91.008L603.008 863.488 603.008 772.48zM586.048 772.48l5.632 0 0 91.008L586.048 863.488 586.048 772.48zM569.088 772.48l5.568 0 0 91.008L569.088 863.488 569.088 772.48zM552.064 772.48l5.632 0 0 91.008L552.064 863.488 552.064 772.48zM455.872 863.488 450.24 863.488 450.24 772.48l5.632 0L455.872 863.488zM472.832 863.488 467.2 863.488 467.2 772.48l5.632 0L472.832 863.488zM489.856 863.488 484.224 863.488 484.224 772.48l5.632 0L489.856 863.488zM506.816 863.488 501.184 863.488 501.184 772.48l5.632 0L506.816 863.488zM523.776 863.488 518.144 863.488 518.144 772.48l5.632 0L523.776 863.488zM540.736 863.488 535.104 863.488 535.104 772.48l5.632 0L540.736 863.488z" p-id="1534" fill="#ffffff"></path><path d="M552.192 334.592 459.904 334.592c-31.168 0-59.136 11.328-79.04 29.44l0 130.88 0 35.456 0 16.576 48.704 0 192.384-190.4C603.008 342.912 578.752 334.592 552.192 334.592z" p-id="1535" fill="#ffffff"></path></svg>
